<mxfile host="app.diagrams.net" modified="2022-01-30T15:49:11.029Z" agent="5.0 (Windows NT 10.0; Win64; x64) AppleWebKit/537.36 (KHTML, like Gecko) Chrome/97.0.4692.99 Safari/537.36" etag="xVIAwR0DbIrr2GGC9FF2" version="16.5.2" type="github">
  <diagram id="DGHI4IdfCPbIkz-FcZ3y" name="第 1 页">
    <mxGraphModel dx="1237" dy="744" grid="0" gridSize="10" guides="1" tooltips="1" connect="1" arrows="1" fold="1" page="0" pageScale="1" pageWidth="827" pageHeight="1169" math="0" shadow="0">
      <root>
        <mxCell id="0" />
        <mxCell id="1" parent="0" />
      </root>
    </mxGraphModel>
  </diagram>
</mxfile>
